<svg xmlns="http://www.w3.org/2000/svg" viewBox="0 0 262.55 368.3"><defs><style>.cls-1{isolation:isolate;}.cls-2{fill:#ee443f;}.cls-3{mix-blend-mode:multiply;}.cls-4{fill:#231f20;}.cls-5{fill:#f8eb32;}</style></defs><title>logo</title><g class="cls-1"><g id="Layer_1" data-name="Layer 1"><rect class="cls-2" width="262.55" height="368.3"/><g class="cls-3"><path class="cls-4" d="M55.7,92a4.91,4.91,0,0,1,2.67-4.77c1.67-1,2.91-2,2.91-6.08V67.7c0-3.59-1.05-4.71-2.73-5.52s-2.85-1.42-2.85-4.27c0-4.84,1.18-5.52,11.22-5.52,10.54,0,11.84.68,11.84,4.28,0,2.41-.37,3.78-2.54,5.27-1.86,1.24-3,2-3,6V81.77c0,3.23,1.06,4.28,2.61,5.21a4.58,4.58,0,0,1,2.66,4.47c0,4.58-1,5.2-12,5.2C56.88,96.65,55.7,96,55.7,92Z"/><path class="cls-4" d="M95.38,91.94a4.76,4.76,0,0,1,2.11-4.46c1.42-1.06,1.67-2.3,1.86-5.46.12-2,.12-5.76.12-8.74l-.06-9.86c-.06-1.86-.44-2.17-2.11-2.17-2,0-3.6-.18-3.6-2.6,0-2.17,1.18-4.22,2.73-6.08a9.82,9.82,0,0,1,7.69-3.9c3.91,0,7.25,2.23,7.25,6.82,0,1.67-.12,4.52-.49,9.48s-.93,13.83-.56,18.48c.12,2,.31,2.73,1.74,3.78a4.5,4.5,0,0,1,2.1,4.22c0,3.53-1.55,5.27-9.3,5.27C97.86,96.72,95.38,96.34,95.38,91.94Z"/><path class="cls-4" d="M114.47,92.38a5,5,0,0,1,2.17-4.22c1.24-.87,2-1.67,2.36-5.21,0-1.11.06-4.83.06-8.55,0-1.92-.43-2.23-1.73-2.23-1.93,0-3-.44-3-2.3a7.69,7.69,0,0,1,3.16-5.52A11.22,11.22,0,0,1,124.64,62c5,0,6.7,1.92,6.7,5.33,0,3.72-1.61,6.45-1.61,10.79,0,2.17.06,3.9.18,6s.44,3,1.55,3.84a5,5,0,0,1,1.86,4.28c0,3.35-1.55,4.47-9,4.47C117,96.72,114.47,97,114.47,92.38Zm2.24-37.95c-.07-3.41,2.6-5.89,7.68-5.89,5.34,0,7.75,2.55,7.75,5.89s-2.35,5.46-7.44,5.46S116.71,57.78,116.71,54.43Z"/><path class="cls-4" d="M134.68,79.54c0-9.73,6-18.1,16-18.1,3,0,4.46.56,5.95,1.74a2.67,2.67,0,0,0,1.92,1c.56,0,.75-.56,1.12-1.3a2.24,2.24,0,0,1,2.23-1.24c2.73-.13,2.92,1.79,4.84,6.32,2.6,6.2,2.23,8.68-2.42,9.79-3.29.75-5.46-1.67-6.82-3.53-1.92-2.6-3-3.53-5.83-3.53-3.66,0-5.33,2.79-5.27,6.26.07,5.33,2.67,10.41,9,10.41a17,17,0,0,0,8.37-2.72,2.32,2.32,0,0,1,1.49-.56c1.05,0,1.55.68,1.49,1.86-.62,6.63-6.39,11.53-15,11.53C141.19,97.46,134.68,90.39,134.68,79.54Z"/><path class="cls-4" d="M169.84,92a5.11,5.11,0,0,1,2.23-4.65c1.43-1.17,2.36-1.86,2.42-5.27.06-2.29.12-5.51.12-7.93,0-3,.06-8.56-.06-11.41-.12-2.29-.5-2.17-2.29-2.17-2.54,0-4-.31-4-3.16,0-2.6,1.67-5.15,4.09-6.94A11.46,11.46,0,0,1,179,48.23c4.84,0,7.69,2.73,7.69,7.2,0,3.84-1.3,7-1.3,15,0,3.53-.44,5.89.74,5.89.68,0,.93-.13,5.15-3.84,2-1.74,2.17-2.67.74-3s-2.35-1.06-2.35-3.1c0-3,1.24-3.91,9.23-3.91,7.07,0,7.69,1.18,7.69,4.28,0,2.42-.37,3.16-3,4-1.8.62-2.3,1-4.41,2.85-1.24,1.12-1.73,1.55-1.73,2.42,0,1.36,2.48,4.15,3.28,5.45,2.36,3.35,2.86,4.47,4.16,5.34a5.07,5.07,0,0,1,2,4.52c0,4.65-1.61,5.15-8.49,5.15-6.2,0-8.31-.5-8.31-4.84a4,4,0,0,1,1.43-3.35,2.21,2.21,0,0,0,.31-3,11.39,11.39,0,0,0-1.74-2.48c-.81-.93-1.36-1.49-2.42-1.24s-2.6,1.3-2.6,2.79c0,1.92.49,2.6,1.24,3.1.93.74,1.67,1.3,1.67,4,0,4.46-1.42,5.14-7.56,5.14C171.45,96.65,169.84,96,169.84,92Z"/><path class="cls-4" d="M38,166.4a4.91,4.91,0,0,1,2.67-4.77c1.67-1,2.91-2,2.91-6.08V142.1c0-3.59-1-4.71-2.73-5.52S38,135.16,38,132.31c0-4.84,1.18-5.52,11.22-5.52,10.54,0,11.84.68,11.84,4.28,0,2.41-.37,3.78-2.54,5.27-1.86,1.24-3,2-3,6v13.82c0,3.23,1.06,4.28,2.61,5.21a4.58,4.58,0,0,1,2.66,4.47c0,4.58-1,5.2-12,5.2C39.21,171.05,38,170.43,38,166.4Z"/><path class="cls-4" d="M77.77,153.94c0-9.73,6-18.1,16-18.1,3,0,4.46.56,6,1.74a2.65,2.65,0,0,0,1.92,1c.56,0,.74-.56,1.12-1.3A2.23,2.23,0,0,1,105,136c2.73-.13,2.91,1.79,4.83,6.32,2.61,6.2,2.24,8.68-2.41,9.79-3.29.75-5.46-1.67-6.82-3.53-1.93-2.6-3-3.53-5.83-3.53-3.66,0-5.33,2.79-5.27,6.26.06,5.33,2.66,10.41,9,10.41a17,17,0,0,0,8.37-2.72,2.32,2.32,0,0,1,1.49-.56c1,0,1.55.68,1.48,1.86-.62,6.63-6.38,11.53-15,11.53C84.28,171.86,77.77,164.79,77.77,153.94Z"/><path class="cls-4" d="M113.05,166.34a4.76,4.76,0,0,1,2.11-4.46c1.42-1.06,1.67-2.3,1.86-5.46.12-2,.12-5.76.12-8.74l-.06-9.86c-.06-1.86-.44-2.17-2.11-2.17-2,0-3.6-.18-3.6-2.6,0-2.17,1.18-4.22,2.73-6.08a9.82,9.82,0,0,1,7.69-3.9c3.91,0,7.25,2.23,7.25,6.82,0,1.67-.12,4.52-.49,9.48s-.93,13.83-.56,18.48c.12,2,.31,2.73,1.74,3.78a4.5,4.5,0,0,1,2.1,4.22c0,3.53-1.55,5.27-9.3,5.27C115.53,171.12,113.05,170.74,113.05,166.34Z"/><path class="cls-4" d="M132.14,166.78a5,5,0,0,1,2.17-4.22c1.24-.87,2.05-1.67,2.36-5.21,0-1.11.06-4.83.06-8.55,0-1.92-.43-2.23-1.73-2.23-1.93,0-3-.44-3-2.3a7.69,7.69,0,0,1,3.16-5.52,11.22,11.22,0,0,1,7.13-2.35c5,0,6.7,1.92,6.7,5.33,0,3.72-1.61,6.45-1.61,10.79,0,2.17.06,3.9.18,6s.44,3,1.55,3.84a5,5,0,0,1,1.86,4.28c0,3.35-1.55,4.47-9.05,4.47C134.69,171.12,132.14,171.36,132.14,166.78Zm2.24-37.95c-.07-3.41,2.6-5.89,7.68-5.89,5.34,0,7.75,2.55,7.75,5.89s-2.35,5.46-7.44,5.46S134.38,132.18,134.38,128.83Z"/><path class="cls-4" d="M152.35,153.94c0-9.73,6-18.1,16-18.1,3,0,4.46.56,6,1.74a2.67,2.67,0,0,0,1.92,1c.56,0,.75-.56,1.12-1.3a2.24,2.24,0,0,1,2.23-1.24c2.73-.13,2.92,1.79,4.84,6.32,2.6,6.2,2.23,8.68-2.42,9.79-3.29.75-5.46-1.67-6.82-3.53-1.92-2.6-3-3.53-5.83-3.53-3.66,0-5.33,2.79-5.27,6.26.06,5.33,2.67,10.41,9,10.41a17,17,0,0,0,8.37-2.72,2.32,2.32,0,0,1,1.49-.56c1.05,0,1.55.68,1.49,1.86-.62,6.63-6.39,11.53-15,11.53C158.86,171.86,152.35,164.79,152.35,153.94Z"/><path class="cls-4" d="M187.51,166.4a5.11,5.11,0,0,1,2.23-4.65c1.43-1.17,2.36-1.86,2.42-5.27.06-2.29.12-5.51.12-7.93,0-3,.06-8.56-.06-11.41-.12-2.29-.5-2.17-2.29-2.17-2.55,0-4-.31-4-3.16,0-2.6,1.67-5.15,4.09-6.94a11.46,11.46,0,0,1,6.57-2.24c4.84,0,7.69,2.73,7.69,7.2,0,3.84-1.3,7-1.3,15,0,3.53-.44,5.89.74,5.89.68,0,.93-.13,5.15-3.84,2-1.74,2.17-2.67.74-3s-2.35-1.06-2.35-3.1c0-3,1.24-3.91,9.23-3.91,7.07,0,7.69,1.18,7.69,4.28,0,2.42-.37,3.16-3,4-1.8.62-2.3,1-4.41,2.85-1.24,1.12-1.73,1.55-1.73,2.42,0,1.36,2.48,4.15,3.28,5.45,2.36,3.35,2.86,4.47,4.16,5.34a5.07,5.07,0,0,1,2,4.52c0,4.65-1.61,5.15-8.49,5.15-6.2,0-8.31-.5-8.31-4.84a4,4,0,0,1,1.43-3.35,2.21,2.21,0,0,0,.31-3,11.39,11.39,0,0,0-1.74-2.48c-.81-.93-1.36-1.49-2.42-1.24s-2.6,1.3-2.6,2.79c0,1.92.49,2.6,1.24,3.1.93.74,1.67,1.3,1.67,4,0,4.46-1.42,5.14-7.56,5.14C189.12,171.05,187.51,170.37,187.51,166.4Z"/><path class="cls-4" d="M50.86,240.8A4.93,4.93,0,0,1,53.53,236c1.67-1.05,2.91-2,2.91-6.08V216.5c0-3.59-1-4.71-2.72-5.52s-2.86-1.42-2.86-4.27c0-4.84,1.18-5.52,11.23-5.52,10.53,0,11.84.68,11.84,4.28,0,2.41-.38,3.78-2.55,5.27-1.85,1.24-3,2-3,6v13.82c0,3.23,1.05,4.28,2.6,5.21a4.59,4.59,0,0,1,2.67,4.47c0,4.58-1,5.2-12,5.2C52,245.45,50.86,244.83,50.86,240.8Z"/><path class="cls-4" d="M92.78,243.22c0-6.14.68-21.82,1.17-32.86.07-2.72-.31-2.91-2.6-2.91s-3.84-.31-3.84-2.67c0-2.6,1.73-4.52,3.65-6a10.26,10.26,0,0,1,6.33-2.05c4,0,7.31,1.74,7.31,7.07a31.44,31.44,0,0,1-1.3,8.31c-.68,2.17-.5,3,.37,3s1.61-1.55,2.48-2.42a10,10,0,0,1,7.57-2.92c8.61,0,14.13,6.82,14.13,17.11,0,11-5.39,18.6-16.12,18.6-3.28,0-5.52-.68-7.13-1.92-2.11-1.67-2.66-3.59-3.66-3.53-1.3.06-1.36,1.55-1.73,3.9-.31,1.43-1.3,2-3.29,2C94.76,246,92.78,245.76,92.78,243.22ZM116,227.1c-1-4.71-3-7.87-7.13-7.19s-5.33,4.46-4.15,9.67c1,4.65,2.79,7.26,6.94,6.7S117.14,232.56,116,227.1Z"/><path class="cls-4" d="M129.79,241.18A5,5,0,0,1,132,237c1.24-.87,2-1.67,2.35-5.21,0-1.11.07-4.83.07-8.55,0-1.92-.44-2.24-1.74-2.24-1.92,0-3-.43-3-2.29a7.69,7.69,0,0,1,3.16-5.52A11.18,11.18,0,0,1,140,210.8c5,0,6.69,1.92,6.69,5.33,0,3.72-1.61,6.45-1.61,10.79,0,2.17.06,3.9.19,6s.43,3,1.55,3.84a5,5,0,0,1,1.86,4.28c0,3.35-1.55,4.47-9,4.47C132.33,245.52,129.79,245.76,129.79,241.18Zm2.23-38c-.06-3.41,2.6-5.89,7.69-5.89,5.33,0,7.75,2.55,7.75,5.89s-2.36,5.46-7.44,5.46S132,206.58,132,203.23Z"/><path class="cls-4" d="M153.66,234.67c0-3.23.56-6.45.56-10.54,0-2.54-.19-2.23-2.55-2.23s-2.48-1.8-2.48-4.41c0-4.27,1.37-3.47,6.95-6.44,3.72-1.93,5.52-4,8.18-4,1.24,0,2.17.62,2.17,2.6,0,2.48.5,2.17,3.78,2.17,4,0,5.33-.06,5.33,2.73,0,1.49-.18,2.29-.24,4.4-.19,3.23-2,3.1-6.27,3.1s-3.28.25-3.47,5c0,1.67-.06,3.35-.06,4.71,0,2.3,1.24,3.66,3.41,3.66,1.8,0,3.72-.62,5-.62.93,0,1.68.5,1.61,2.67-.06,4.89-3.72,8.61-9.85,8.61C158.62,246.07,153.66,241.73,153.66,234.67Z"/><path class="cls-4" d="M177.46,229c0-9.73,5.71-19,17.36-19,9.24,0,15.56,5.46,15.56,15.38,0,4.65-1,5.33-6.57,5.33H189.74c-.81,0-1.24.37-1.24,1.18.06,2.48,4,4.4,9.17,4.4,4,0,6-.74,7.57-1.55a6.36,6.36,0,0,1,2.29-.87c1.49,0,1.55,1.86,1.18,3.78-1.12,5.4-6.7,8.68-13.89,8.68C184.47,246.38,177.46,239.07,177.46,229Zm21.46-6.2a5,5,0,0,0-5-4.89c-3.47,0-5.58,2.54-5.39,6,.06.87.43,1,2.29,1C197.92,224.93,198.92,224.5,198.92,222.82Z"/><path class="cls-4" d="M51.11,315.2a4.93,4.93,0,0,1,2.67-4.77c1.67-1.05,2.91-2,2.91-6.08V290.9c0-3.59-1-4.71-2.73-5.52s-2.85-1.42-2.85-4.27c0-4.84,1.18-5.52,11.22-5.52,10.54,0,11.84.68,11.84,4.28,0,2.41-.37,3.78-2.54,5.27-1.86,1.24-3,2-3,6V305c0,3.23,1.06,4.28,2.61,5.21a4.58,4.58,0,0,1,2.66,4.47c0,4.58-1,5.2-12,5.2C52.29,319.85,51.11,319.23,51.11,315.2Z"/><path class="cls-4" d="M92.34,317.81c-2.35-5.77-2-7.26.43-8.37,2.79-1.3,4.34-.81,7.69,1.49a14.32,14.32,0,0,0,7.57,2.91c2.35,0,3.28-.87,3.28-2.23,0-1.86-2-2.48-5.76-3.29-3.48-.74-9.12-1.67-11.66-4.4a10.23,10.23,0,0,1-2.67-7.38c0-7.68,6.27-12,13.4-11.84a13.19,13.19,0,0,1,6.57,1.61,4.71,4.71,0,0,0,2.17.93c1.55,0,.43-2.6,3.35-2.6,2.23,0,2.41,1.3,3.53,3.47,2.85,5.52,1.49,7.32-.12,8.06-2.61,1.24-4.16.74-7.26-1.24-2.54-1.8-5.76-3.16-8.12-3.16-2.17,0-3.41,1-3.41,2.42,0,1.24.68,1.67,3.66,2.23,7.81,1.42,11.28,2.23,14.07,5.14,1.74,1.8,2.79,3.85,2.79,7.57,0,7.69-5.76,11.59-13.14,11.59a14.53,14.53,0,0,1-7-1.49c-1.18-.56-1.67-1.05-2.42-1.05-1.55,0-.37,2.66-3.59,2.66C93.89,320.84,93.21,319.85,92.34,317.81Z"/><path class="cls-4" d="M125.32,327.23c0-3.28.75-4.09,2.61-5.58,1.55-1.18,1.8-2.35,1.8-5.14V300c0-3.34-.19-4.27-2.36-4.27-2.36,0-4-.5-4.09-2.67,0-2.66,1.61-4.59,3.78-6.32a9.81,9.81,0,0,1,5.83-2.3c2.91,0,4.65,1.62,4.65,3.85,0,1.73.18,2.17.8,2.17.87,0,1.31-1.06,2.17-2.17a9.94,9.94,0,0,1,8.62-4.53c8.31,0,13.83,7.07,13.83,17.11S158.12,319,148.08,319c-5.09,0-5.89-2.36-7-2.24-1.36.13-1.36,1.31-1.24,3.23a2.66,2.66,0,0,0,1.74,2.79c2.1,1.05,3.16,2.17,3.16,5,0,2.67-1.36,4.28-5.95,4.28C132.39,332.07,125.32,331.32,125.32,327.23Zm25.86-25.6c-.62-4.9-2.73-7.88-6.64-7.44-3.72.49-5,4.21-4.4,8.3.68,5.71,2.42,7.82,6.45,7.38C150.18,309.5,151.74,306.71,151.18,301.63Z"/><path class="cls-4" d="M164.69,315.58a5,5,0,0,1,2.17-4.22c1.24-.87,2-1.67,2.36-5.21,0-1.11.06-4.83.06-8.55,0-1.93-.43-2.24-1.73-2.24-1.93,0-3-.43-3-2.29a7.69,7.69,0,0,1,3.16-5.52,11.22,11.22,0,0,1,7.13-2.35c5,0,6.7,1.92,6.7,5.33,0,3.72-1.62,6.45-1.62,10.79,0,2.17.07,3.9.19,6s.44,3,1.55,3.84a5,5,0,0,1,1.86,4.28c0,3.35-1.55,4.47-9,4.47C167.24,319.92,164.69,320.16,164.69,315.58Zm2.24-37.95c-.07-3.41,2.6-5.89,7.68-5.89,5.33,0,7.75,2.55,7.75,5.89s-2.35,5.46-7.44,5.46S166.93,281,166.93,277.63Z"/><path class="cls-4" d="M188.56,309.07c0-3.23.56-6.45.56-10.54,0-2.55-.19-2.23-2.54-2.23s-2.48-1.8-2.48-4.41c0-4.27,1.36-3.47,6.94-6.44,3.72-1.93,5.52-4,8.19-4,1.24,0,2.17.62,2.17,2.6,0,2.48.49,2.17,3.78,2.17,4,0,5.33-.06,5.33,2.73,0,1.49-.19,2.29-.25,4.4-.18,3.22-2,3.1-6.26,3.1s-3.29.25-3.47,5c0,1.67-.06,3.35-.06,4.71,0,2.3,1.24,3.66,3.41,3.66,1.79,0,3.71-.62,5-.62.93,0,1.67.5,1.61,2.67-.06,4.89-3.72,8.61-9.86,8.61C193.52,320.47,188.56,316.13,188.56,309.07Z"/></g><path class="cls-5" d="M55.7,86a4.91,4.91,0,0,1,2.67-4.77c1.67-1,2.91-2,2.91-6.08V61.7c0-3.59-1.05-4.71-2.73-5.52s-2.85-1.42-2.85-4.27c0-4.84,1.18-5.52,11.22-5.52,10.54,0,11.84.68,11.84,4.28,0,2.41-.37,3.78-2.54,5.27-1.86,1.24-3,2-3,6V75.77c0,3.23,1.06,4.28,2.61,5.21a4.58,4.58,0,0,1,2.66,4.47c0,4.58-1,5.2-12,5.2C56.88,90.65,55.7,90,55.7,86Z"/><path class="cls-5" d="M95.38,85.94a4.76,4.76,0,0,1,2.11-4.46c1.42-1.06,1.67-2.3,1.86-5.46.12-2,.12-5.76.12-8.74l-.06-9.86c-.06-1.86-.44-2.17-2.11-2.17-2,0-3.6-.18-3.6-2.6,0-2.17,1.18-4.22,2.73-6.08a9.82,9.82,0,0,1,7.69-3.9c3.91,0,7.25,2.23,7.25,6.82,0,1.67-.12,4.52-.49,9.48s-.93,13.83-.56,18.48c.12,2,.31,2.73,1.74,3.78a4.5,4.5,0,0,1,2.1,4.22c0,3.53-1.55,5.27-9.3,5.27C97.86,90.72,95.38,90.34,95.38,85.94Z"/><path class="cls-5" d="M114.47,86.38a5,5,0,0,1,2.17-4.22c1.24-.87,2-1.67,2.36-5.21,0-1.11.06-4.83.06-8.55,0-1.92-.43-2.23-1.73-2.23-1.93,0-3-.44-3-2.3a7.69,7.69,0,0,1,3.16-5.52A11.22,11.22,0,0,1,124.64,56c5,0,6.7,1.92,6.7,5.33,0,3.72-1.61,6.45-1.61,10.79,0,2.17.06,3.9.18,6s.44,3,1.55,3.84a5,5,0,0,1,1.86,4.28c0,3.35-1.55,4.47-9,4.47C117,90.72,114.47,91,114.47,86.38Zm2.24-37.95c-.07-3.41,2.6-5.89,7.68-5.89,5.34,0,7.75,2.55,7.75,5.89s-2.35,5.46-7.44,5.46S116.71,51.78,116.71,48.43Z"/><path class="cls-5" d="M134.68,73.54c0-9.73,6-18.1,16-18.1,3,0,4.46.56,5.95,1.74a2.67,2.67,0,0,0,1.92,1c.56,0,.75-.56,1.12-1.3a2.24,2.24,0,0,1,2.23-1.24c2.73-.13,2.92,1.79,4.84,6.32,2.6,6.2,2.23,8.68-2.42,9.79-3.29.75-5.46-1.67-6.82-3.53-1.92-2.6-3-3.53-5.83-3.53-3.66,0-5.33,2.79-5.27,6.26.07,5.33,2.67,10.41,9,10.41a17,17,0,0,0,8.37-2.72,2.32,2.32,0,0,1,1.49-.56c1.05,0,1.55.68,1.49,1.86-.62,6.63-6.39,11.53-15,11.53C141.19,91.46,134.68,84.39,134.68,73.54Z"/><path class="cls-5" d="M169.84,86a5.11,5.11,0,0,1,2.23-4.65c1.43-1.17,2.36-1.86,2.42-5.27.06-2.29.12-5.51.12-7.93,0-3,.06-8.56-.06-11.41-.12-2.29-.5-2.17-2.29-2.17-2.54,0-4-.31-4-3.16,0-2.6,1.67-5.15,4.09-6.94A11.46,11.46,0,0,1,179,42.23c4.84,0,7.69,2.73,7.69,7.2,0,3.84-1.3,7-1.3,15,0,3.53-.44,5.89.74,5.89.68,0,.93-.13,5.15-3.84,2-1.74,2.17-2.67.74-3s-2.35-1.06-2.35-3.1c0-3,1.24-3.91,9.23-3.91,7.07,0,7.69,1.18,7.69,4.28,0,2.42-.37,3.16-3,4-1.8.62-2.3,1-4.41,2.85-1.24,1.12-1.73,1.55-1.73,2.42,0,1.36,2.48,4.15,3.28,5.45,2.36,3.35,2.86,4.47,4.16,5.34a5.07,5.07,0,0,1,2,4.52c0,4.65-1.61,5.15-8.49,5.15-6.2,0-8.31-.5-8.31-4.84a4,4,0,0,1,1.43-3.35,2.21,2.21,0,0,0,.31-3,11.39,11.39,0,0,0-1.74-2.48c-.81-.93-1.36-1.49-2.42-1.24s-2.6,1.3-2.6,2.79c0,1.92.49,2.6,1.24,3.1.93.74,1.67,1.3,1.67,4,0,4.46-1.42,5.14-7.56,5.14C171.45,90.65,169.84,90,169.84,86Z"/><path class="cls-5" d="M38,160.4a4.91,4.91,0,0,1,2.67-4.77c1.67-1,2.91-2,2.91-6.08V136.1c0-3.59-1-4.71-2.73-5.52S38,129.16,38,126.31c0-4.84,1.18-5.52,11.22-5.52,10.54,0,11.84.68,11.84,4.28,0,2.41-.37,3.78-2.54,5.27-1.86,1.24-3,2-3,6v13.82c0,3.23,1.06,4.28,2.61,5.21a4.58,4.58,0,0,1,2.66,4.47c0,4.58-1,5.2-12,5.2C39.21,165.05,38,164.43,38,160.4Z"/><path class="cls-5" d="M77.77,147.94c0-9.73,6-18.1,16-18.1,3,0,4.46.56,6,1.74a2.65,2.65,0,0,0,1.92,1c.56,0,.74-.56,1.12-1.3A2.23,2.23,0,0,1,105,130c2.73-.13,2.91,1.79,4.83,6.32,2.61,6.2,2.24,8.68-2.41,9.79-3.29.75-5.46-1.67-6.82-3.53-1.93-2.6-3-3.53-5.83-3.53-3.66,0-5.33,2.79-5.27,6.26.06,5.33,2.66,10.41,9,10.41a17,17,0,0,0,8.37-2.72,2.32,2.32,0,0,1,1.49-.56c1,0,1.55.68,1.48,1.86-.62,6.63-6.38,11.53-15,11.53C84.28,165.86,77.77,158.79,77.77,147.94Z"/><path class="cls-5" d="M113.05,160.34a4.76,4.76,0,0,1,2.11-4.46c1.42-1.06,1.67-2.3,1.86-5.46.12-2,.12-5.76.12-8.74l-.06-9.86c-.06-1.86-.44-2.17-2.11-2.17-2,0-3.6-.18-3.6-2.6,0-2.17,1.18-4.22,2.73-6.08a9.82,9.82,0,0,1,7.69-3.9c3.91,0,7.25,2.23,7.25,6.82,0,1.67-.12,4.52-.49,9.48s-.93,13.83-.56,18.48c.12,2,.31,2.73,1.74,3.78a4.5,4.5,0,0,1,2.1,4.22c0,3.53-1.55,5.27-9.3,5.27C115.53,165.12,113.05,164.74,113.05,160.34Z"/><path class="cls-5" d="M132.14,160.78a5,5,0,0,1,2.17-4.22c1.24-.87,2.05-1.67,2.36-5.21,0-1.11.06-4.83.06-8.55,0-1.92-.43-2.23-1.73-2.23-1.93,0-3-.44-3-2.3a7.69,7.69,0,0,1,3.16-5.52,11.22,11.22,0,0,1,7.13-2.35c5,0,6.7,1.92,6.7,5.33,0,3.72-1.61,6.45-1.61,10.79,0,2.17.06,3.9.18,6s.44,3,1.55,3.84a5,5,0,0,1,1.86,4.28c0,3.35-1.55,4.47-9.05,4.47C134.69,165.12,132.14,165.36,132.14,160.78Zm2.24-37.95c-.07-3.41,2.6-5.89,7.68-5.89,5.34,0,7.75,2.55,7.75,5.89s-2.35,5.46-7.44,5.46S134.38,126.18,134.38,122.83Z"/><path class="cls-5" d="M152.35,147.94c0-9.73,6-18.1,16-18.1,3,0,4.46.56,6,1.74a2.67,2.67,0,0,0,1.92,1c.56,0,.75-.56,1.12-1.3a2.24,2.24,0,0,1,2.23-1.24c2.73-.13,2.92,1.79,4.84,6.32,2.6,6.2,2.23,8.68-2.42,9.79-3.29.75-5.46-1.67-6.82-3.53-1.92-2.6-3-3.53-5.83-3.53-3.66,0-5.33,2.79-5.27,6.26.06,5.33,2.67,10.41,9,10.41a17,17,0,0,0,8.37-2.72,2.32,2.32,0,0,1,1.49-.56c1.05,0,1.55.68,1.49,1.86-.62,6.63-6.39,11.53-15,11.53C158.86,165.86,152.35,158.79,152.35,147.94Z"/><path class="cls-5" d="M187.51,160.4a5.11,5.11,0,0,1,2.23-4.65c1.43-1.17,2.36-1.86,2.42-5.27.06-2.29.12-5.51.12-7.93,0-3,.06-8.56-.06-11.41-.12-2.29-.5-2.17-2.29-2.17-2.55,0-4-.31-4-3.16,0-2.6,1.67-5.15,4.09-6.94a11.46,11.46,0,0,1,6.57-2.24c4.84,0,7.69,2.73,7.69,7.2,0,3.84-1.3,7-1.3,15,0,3.53-.44,5.89.74,5.89.68,0,.93-.13,5.15-3.84,2-1.74,2.17-2.67.74-3s-2.35-1.06-2.35-3.1c0-3,1.24-3.91,9.23-3.91,7.07,0,7.69,1.18,7.69,4.28,0,2.42-.37,3.16-3,4-1.8.62-2.3,1-4.41,2.85-1.24,1.12-1.73,1.55-1.73,2.42,0,1.36,2.48,4.15,3.28,5.45,2.36,3.35,2.86,4.47,4.16,5.34a5.07,5.07,0,0,1,2,4.52c0,4.65-1.61,5.15-8.49,5.15-6.2,0-8.31-.5-8.31-4.84a4,4,0,0,1,1.43-3.35,2.21,2.21,0,0,0,.31-3,11.39,11.39,0,0,0-1.74-2.48c-.81-.93-1.36-1.49-2.42-1.24s-2.6,1.3-2.6,2.79c0,1.92.49,2.6,1.24,3.1.93.74,1.67,1.3,1.67,4,0,4.46-1.42,5.14-7.56,5.14C189.12,165.05,187.51,164.37,187.51,160.4Z"/><path class="cls-5" d="M50.86,234.8A4.93,4.93,0,0,1,53.53,230c1.67-1.05,2.91-2,2.91-6.08V210.5c0-3.59-1-4.71-2.72-5.52s-2.86-1.42-2.86-4.27c0-4.84,1.18-5.52,11.23-5.52,10.53,0,11.84.68,11.84,4.28,0,2.41-.38,3.78-2.55,5.27-1.85,1.24-3,2-3,6v13.82c0,3.23,1.05,4.28,2.6,5.21a4.59,4.59,0,0,1,2.67,4.47c0,4.58-1,5.2-12,5.2C52,239.45,50.86,238.83,50.86,234.8Z"/><path class="cls-5" d="M92.78,237.22c0-6.14.68-21.82,1.17-32.86.07-2.72-.31-2.91-2.6-2.91s-3.84-.31-3.84-2.67c0-2.6,1.73-4.52,3.65-6a10.26,10.26,0,0,1,6.33-2.05c4,0,7.31,1.74,7.31,7.07a31.44,31.44,0,0,1-1.3,8.31c-.68,2.17-.5,3,.37,3s1.61-1.55,2.48-2.42a10,10,0,0,1,7.57-2.92c8.61,0,14.13,6.82,14.13,17.11,0,11-5.39,18.6-16.12,18.6-3.28,0-5.52-.68-7.13-1.92-2.11-1.67-2.66-3.59-3.66-3.53-1.3.06-1.36,1.55-1.73,3.9-.31,1.43-1.3,2-3.29,2C94.76,240,92.78,239.76,92.78,237.22ZM116,221.1c-1-4.71-3-7.87-7.13-7.19s-5.33,4.46-4.15,9.67c1,4.65,2.79,7.26,6.94,6.7S117.14,226.56,116,221.1Z"/><path class="cls-5" d="M129.79,235.18A5,5,0,0,1,132,231c1.24-.87,2-1.67,2.35-5.21,0-1.11.07-4.83.07-8.55,0-1.92-.44-2.24-1.74-2.24-1.92,0-3-.43-3-2.29a7.69,7.69,0,0,1,3.16-5.52A11.18,11.18,0,0,1,140,204.8c5,0,6.69,1.92,6.69,5.33,0,3.72-1.61,6.45-1.61,10.79,0,2.17.06,3.9.19,6s.43,3,1.55,3.84a5,5,0,0,1,1.86,4.28c0,3.35-1.55,4.47-9,4.47C132.33,239.52,129.79,239.76,129.79,235.18Zm2.23-38c-.06-3.41,2.6-5.89,7.69-5.89,5.33,0,7.75,2.55,7.75,5.89s-2.36,5.46-7.44,5.46S132,200.58,132,197.23Z"/><path class="cls-5" d="M153.66,228.67c0-3.23.56-6.45.56-10.54,0-2.54-.19-2.23-2.55-2.23s-2.48-1.8-2.48-4.41c0-4.27,1.37-3.47,6.95-6.44,3.72-1.93,5.52-4,8.18-4,1.24,0,2.17.62,2.17,2.6,0,2.48.5,2.17,3.78,2.17,4,0,5.33-.06,5.33,2.73,0,1.49-.18,2.29-.24,4.4-.19,3.23-2,3.1-6.27,3.1s-3.28.25-3.47,5c0,1.67-.06,3.35-.06,4.71,0,2.3,1.24,3.66,3.41,3.66,1.8,0,3.72-.62,5-.62.93,0,1.68.5,1.61,2.67-.06,4.89-3.72,8.61-9.85,8.61C158.62,240.07,153.66,235.73,153.66,228.67Z"/><path class="cls-5" d="M177.46,223c0-9.73,5.71-19,17.36-19,9.24,0,15.56,5.46,15.56,15.38,0,4.65-1,5.33-6.57,5.33H189.74c-.81,0-1.24.37-1.24,1.18.06,2.48,4,4.4,9.17,4.4,4,0,6-.74,7.57-1.55a6.36,6.36,0,0,1,2.29-.87c1.49,0,1.55,1.86,1.18,3.78-1.12,5.4-6.7,8.68-13.89,8.68C184.47,240.38,177.46,233.07,177.46,223Zm21.46-6.2a5,5,0,0,0-5-4.89c-3.47,0-5.58,2.54-5.39,6,.06.87.43,1,2.29,1C197.92,218.93,198.92,218.5,198.92,216.82Z"/><path class="cls-5" d="M51.11,309.2a4.93,4.93,0,0,1,2.67-4.77c1.67-1.05,2.91-2,2.91-6.08V284.9c0-3.59-1-4.71-2.73-5.52s-2.85-1.42-2.85-4.27c0-4.84,1.18-5.52,11.22-5.52,10.54,0,11.84.68,11.84,4.28,0,2.41-.37,3.78-2.54,5.27-1.86,1.24-3,2-3,6V299c0,3.23,1.06,4.28,2.61,5.21a4.58,4.58,0,0,1,2.66,4.47c0,4.58-1,5.2-12,5.2C52.29,313.85,51.11,313.23,51.11,309.2Z"/><path class="cls-5" d="M92.34,311.81c-2.35-5.77-2-7.26.43-8.37,2.79-1.3,4.34-.81,7.69,1.49a14.32,14.32,0,0,0,7.57,2.91c2.35,0,3.28-.87,3.28-2.23,0-1.86-2-2.48-5.76-3.29-3.48-.74-9.12-1.67-11.66-4.4a10.23,10.23,0,0,1-2.67-7.38c0-7.68,6.27-12,13.4-11.84a13.19,13.19,0,0,1,6.57,1.61,4.71,4.71,0,0,0,2.17.93c1.55,0,.43-2.6,3.35-2.6,2.23,0,2.41,1.3,3.53,3.47,2.85,5.52,1.49,7.32-.12,8.06-2.61,1.24-4.16.74-7.26-1.24-2.54-1.8-5.76-3.16-8.12-3.16-2.17,0-3.41,1-3.41,2.42,0,1.24.68,1.67,3.66,2.23,7.81,1.42,11.28,2.23,14.07,5.14,1.74,1.8,2.79,3.85,2.79,7.57,0,7.69-5.76,11.59-13.14,11.59a14.53,14.53,0,0,1-7-1.49c-1.18-.56-1.67-1.05-2.42-1.05-1.55,0-.37,2.66-3.59,2.66C93.89,314.84,93.21,313.85,92.34,311.81Z"/><path class="cls-5" d="M125.32,321.23c0-3.28.75-4.09,2.61-5.58,1.55-1.18,1.8-2.35,1.8-5.14V294c0-3.34-.19-4.27-2.36-4.27-2.36,0-4-.5-4.09-2.67,0-2.66,1.61-4.59,3.78-6.32a9.81,9.81,0,0,1,5.83-2.3c2.91,0,4.65,1.62,4.65,3.85,0,1.73.18,2.17.8,2.17.87,0,1.31-1.06,2.17-2.17a9.94,9.94,0,0,1,8.62-4.53c8.31,0,13.83,7.07,13.83,17.11S158.12,313,148.08,313c-5.09,0-5.89-2.36-7-2.24-1.36.13-1.36,1.31-1.24,3.23a2.66,2.66,0,0,0,1.74,2.79c2.1,1.05,3.16,2.17,3.16,5,0,2.67-1.36,4.28-5.95,4.28C132.39,326.07,125.32,325.32,125.32,321.23Zm25.86-25.6c-.62-4.9-2.73-7.88-6.64-7.44-3.72.49-5,4.21-4.4,8.3.68,5.71,2.42,7.82,6.45,7.38C150.18,303.5,151.74,300.71,151.18,295.63Z"/><path class="cls-5" d="M164.69,309.58a5,5,0,0,1,2.17-4.22c1.24-.87,2-1.67,2.36-5.21,0-1.11.06-4.83.06-8.55,0-1.93-.43-2.24-1.73-2.24-1.93,0-3-.43-3-2.29a7.69,7.69,0,0,1,3.16-5.52,11.22,11.22,0,0,1,7.13-2.35c5,0,6.7,1.92,6.7,5.33,0,3.72-1.62,6.45-1.62,10.79,0,2.17.07,3.9.19,6s.44,3,1.55,3.84a5,5,0,0,1,1.86,4.28c0,3.35-1.55,4.47-9,4.47C167.24,313.92,164.69,314.16,164.69,309.58Zm2.24-37.95c-.07-3.41,2.6-5.89,7.68-5.89,5.33,0,7.75,2.55,7.75,5.89s-2.35,5.46-7.44,5.46S166.93,275,166.93,271.63Z"/><path class="cls-5" d="M188.56,303.07c0-3.23.56-6.45.56-10.54,0-2.55-.19-2.23-2.54-2.23s-2.48-1.8-2.48-4.41c0-4.27,1.36-3.47,6.94-6.44,3.72-1.93,5.52-4,8.19-4,1.24,0,2.17.62,2.17,2.6,0,2.48.49,2.17,3.78,2.17,4,0,5.33-.06,5.33,2.73,0,1.49-.19,2.29-.25,4.4-.18,3.22-2,3.1-6.26,3.1s-3.29.25-3.47,5c0,1.67-.06,3.35-.06,4.71,0,2.3,1.24,3.66,3.41,3.66,1.79,0,3.71-.62,5-.62.93,0,1.67.5,1.61,2.67-.06,4.89-3.72,8.61-9.86,8.61C193.52,314.47,188.56,310.13,188.56,303.07Z"/></g></g></svg>